<?xml version="1.0" encoding="utf-8"?>
<!-- Generator: Adobe Illustrator 27.2.0, SVG Export Plug-In . SVG Version: 6.00 Build 0)  -->
<svg version="1.1" id="Layer_1" xmlns:vectornator="http://vectornator.io"
	 xmlns="http://www.w3.org/2000/svg" xmlns:xlink="http://www.w3.org/1999/xlink" x="0px" y="0px" viewBox="0 0 1920 772.1"
	 style="enable-background:new 0 0 1920 772.1;" xml:space="preserve">
<style type="text/css">
	.st0{fill:#FFFFFF;}
</style>
<g id="Untitled" vectornator:layerName="Untitled">
	<g>
		<path class="st0" d="M118.4,192.8l13.7-9.7c0,0-26.4-38-66-13.9c-30.6,18.6-31.3,49.4-29.1,66.4c1.6,9,11.7,32.1,26.3,44.3
			c12,10,28,17,47.1,11.4c42.3-12.3,42.7-50.4,42.2-59.2c-4.9-0.8-14.7-2.5-14.7-2.5s1.7,27.4-18.9,40c-20.6,12.6-44.4-1.2-51-11.7
			c-6.6-10.5-24.3-40.3-1-66.9C78.4,179.6,100.1,168.5,118.4,192.8z"/>
		<path class="st0" d="M182.8,108.3l-18.5,9.2l14.1,132.1l16.7-8.4l-5.3-41l41-21.6l34.4,26.9l15.9-7.5L182.8,108.3z M186.6,187
			l-5.9-57.1L221,169L186.6,187z"/>
		<path class="st0" d="M417.6,675.6V225.4c19.4-3.5,44.9-12.3,44.9-12.3l68.7,384.1l67.1-425l45.7-12.4v545.3l-35.2-4.8V289.7
			l-65.2,402.6l-28.2-3.5l-63.4-379.7v372.6L417.6,675.6z"/>
		<path class="st0" d="M1606.8,322.1v200.2h33.7v-72.7c55.5-7.3,218,91.2,253.7,322.4c8.6-1.3,25.8-6.6,25.8-6.6
			s-20.5-130.2-69.4-200.2c-48.9-70-88.5-105.1-152.6-148c62.1-56.2,82.6-78,107-112.3c27.7-46.9,61.4-83.9,53.5-226
			c-15.9,0-29.1,0-29.1,0s25.8,111-54.8,213.4c-80.6,102.4-109,101.7-134.1,116.9c0-41.6,0-87.2,0-87.2H1606.8z"/>
		<path class="st0" d="M112.3,575.2c0,0,236.5,163.9,697.7,161.2c461.2-2.6,767.7-165.2,782.3-181c11.9,15.9,19.8,30.4,19.8,30.4
			S1292.3,777.3,807.4,772c-485-5.3-693.7-155.9-705.6-167.8C107.2,590.8,112.3,575.2,112.3,575.2z"/>
		<path class="st0" d="M1078.3,538.2c-3.5-9.7-22.9-71.4-43.2-84.6c0,0,64.3-19.4,65.2-142.7c2.6-178.8-118.9-162.1-118.9-162.1
			h-72.2v560.3c0,0,24.7-0.9,36.1-2.8c0-20.7,0-175.8,0-243.9c65.2-24.7,80.2,51.1,80.2,51.1l56.3,166.5l37.9-7.9
			C1119.7,672.1,1093.2,581.3,1078.3,538.2z M1013.5,390.2h-70V213.1c59-1.9,60.8,0,60.8,0s67.4,11.9,62.1,97.8
			S1013.5,390.2,1013.5,390.2z"/>
		<path class="st0" d="M788.4,144.4c0,0-17.6,0-32.6,0l-90.7,562l39.2,1.8l21.6-163.9h96l26,166.3l41.2-0.7L788.4,144.4z
			 M732.9,481.8l40.5-254.6l38.8,253.7L732.9,481.8z"/>
		<path class="st0" d="M843.1,75.7C417.6,83.6,157.2,256.7,0,398.1c11,10.7,22,22,22,22s31.7-30.3,90-72V532l34.2,25.5V324.5
			c145.9-97.4,411-232,745.3-215.8c361.2,6.6,662,179.3,690.7,188.1c5.6-14.5,11.5-31.7,11.5-31.7S1268.5,67.7,843.1,75.7z"/>
		<path class="st0" d="M355.9,31.6l-17.6,9.2l2.1,105.9l-70.8-79.4l-22.5,12.8l47.6,112.3l16.7-8.7l-36.1-86.4l65.5,72.9l13.6-5.8
			l0.1-94l34.4,79.9l18-6.8L355.9,31.6z"/>
		<path class="st0" d="M296,269.5L263.4,280l-89.9,293.4l33.5,18.5l28.8-83.5l96.2,25.3l24.7,121.6l38.8,12.3L296,269.5z M244,473.8
			l38.8-137.4l37,155L244,473.8z"/>
		<path class="st0" d="M1254.8,230.6l-1.8-7.6l-32.7-8.6l-91.2,455.2l34.2-5.4l27.2-146.5l94.5-2.6l31.1,111l37-13.2L1254.8,230.6z
			 M1197.7,472.1l31.9-176.9l39.6,175.6L1197.7,472.1z"/>
		<path class="st0" d="M494.2,22.8C486.4,2,465.5-1.5,452.3,0.5l-62,23.7l39.3,112.2l15.2-5.1L430.3,88L477,70.8
			C477,70.8,505.7,62,494.2,22.8z M467.8,58.5l-41.8,16.3l-14.5-42.3c0,0,15.4-6.2,35.7-14.1c7.5-2.2,22-7,29.5,8.4
			C487.2,53.2,467.8,58.5,467.8,58.5z"/>
		<path class="st0" d="M1532.2,462.2c0,0,0.3,6.8-2.9,17c-13.8,48.3-70.6,68.7-83,72.6c-0.2,0.1-3.2,1.2-6.9,1.1
			c-23.2,0.2-49.1-32.4-47.9-110.5c0-72.7,16.5-117.6,64.7-115c33,1.3,64.1,14.5,78,57.5c17.8-6.6,27.7-9.2,27.7-9.2
			s-34.4-89.2-125.5-80.6c-36.3,4.6-83.9,31.1-82.6,147.3c-0.7,107.2,49.7,144.5,73.8,144c0,0,96.3-5.3,129.4-96.6
			c3.7-8.7,6.3-17.9,7.5-27.6C1549.3,462.2,1532.2,462.2,1532.2,462.2z"/>
	</g>
</g>
</svg>
